<svg id="GRAPHICS" xmlns="http://www.w3.org/2000/svg" xmlns:xlink="http://www.w3.org/1999/xlink" width="208" height="208" viewBox="0 0 208 208"><defs><radialGradient id="radial-gradient" cx="842.461" cy="486.232" r="28.576" gradientTransform="matrix(0.957, 0.29, -0.292, 0.965, -532.161, -623.201)" gradientUnits="userSpaceOnUse"><stop offset="0.338" stop-color="#797673"/><stop offset="0.513" stop-color="#979592"/><stop offset="0.701" stop-color="#b1afac"/><stop offset="0.869" stop-color="#c1bebc"/><stop offset="1" stop-color="#c6c4c2"/></radialGradient><linearGradient id="linear-gradient" x1="47.939" y1="14030.494" x2="56.66" y2="14039.298" gradientTransform="matrix(1, 0, 0, -1, 0, 14198.207)" gradientUnits="userSpaceOnUse"><stop offset="0" stop-color="#bdbcbb"/><stop offset="1" stop-color="#cccbc9"/></linearGradient></defs><path d="M35.518,178c-17.185-7.455-52.182-35.764-11.123-73.607C46.267,84.234.969,48.042,26.036,24.874,52.824.114,70.274,7.538,84.653,19.3c22.8,18.647,28.691-1.7,44.736-7.526,25.67-9.313,76.372-12.854,59.98,92.043-1.348,8.623,12.686,44,1.43,65.015-9.783,18.265-30.116,24.76-76.1,8.571C86.958,167.634,57.805,187.669,35.518,178Z" style="fill:#fce39c;opacity:0.30000000000000004"/><ellipse cx="92.142" cy="126.601" rx="24.201" ry="24.167" style="fill:#fff;opacity:0.25"/><path d="M177.375,100.219A363.147,363.147,0,0,0,194.961,39.54,3.96,3.96,0,0,0,193.83,36,3.833,3.833,0,0,1,194,38.065a363.052,363.052,0,0,1-17.586,60.679,3.819,3.819,0,0,1-4.616,2.192q-29.734-9.067-59.522-18.158a3.394,3.394,0,0,1-1.192-.642,3.145,3.145,0,0,0,2.149,2.116q29.787,9.094,59.522,18.158A3.818,3.818,0,0,0,177.375,100.219Z" style="fill:#e1dfdd"/><path d="M112.28,82.778q29.787,9.093,59.522,18.158a3.819,3.819,0,0,0,4.616-2.192A363.052,363.052,0,0,0,194,38.065a3.953,3.953,0,0,0-2.619-4.453L133.017,15.936a3.149,3.149,0,0,0-4.027,2.439A361.5,361.5,0,0,1,110.247,78.57a3.06,3.06,0,0,0,.841,3.566A3.394,3.394,0,0,0,112.28,82.778Zm3.634-4.69c.012-.029.022-.058.034-.087q2.415-6.056,4.605-12.221a363.025,363.025,0,0,0,12.588-43.747L188.8,38.74q-2.115,10.411-4.817,20.613a361.022,361.022,0,0,1-11.469,35.835Q144.239,86.65,115.914,78.088Z" style="fill:#fff"/><path d="M146.9,74.137c9.6-3.924,16.449-11.232,23.876-14.431q-6.813-2.06-13.627-4.123a7.547,7.547,0,0,1-4.944-4.858,7.88,7.88,0,0,1-.143-4.533A7.108,7.108,0,0,1,160.9,41a8.548,8.548,0,0,1,8.345-1.91,9.989,9.989,0,0,1,6.92,9.487,6.407,6.407,0,0,1,3.859,7.541,6.03,6.03,0,0,1-1,2.072,16.681,16.681,0,0,1,3.513.666c.511.155.987.321,1.443.493q2.692-10.2,4.817-20.613L133.141,22.033A363.025,363.025,0,0,1,120.553,65.78c7.77-2.113,13.451-3.877,17.772-2.57C142.393,64.45,144.363,68.849,146.9,74.137Zm-13.34-18.243a3.007,3.007,0,0,1-1.98-3.777,3.08,3.08,0,0,1,1.471-1.8,2.942,2.942,0,0,1,2.288-.24q1.409.424,2.815.852a5.266,5.266,0,0,1,5.139-1.207,5.436,5.436,0,0,1,3.6,6.753c-.02.066-.037.123-.061.187a.6.6,0,0,1-.016.071,3.041,3.041,0,0,1-3.774,2.036l-6.323-1.915Q135.135,56.375,133.555,55.894Z" style="fill:#e1dfdd"/><path d="M146.9,74.137c-2.532-5.288-4.5-9.687-8.57-10.927-4.321-1.307-10,.457-17.772,2.57q-2.2,6.16-4.605,12.221c6.429.12,20.222-.035,29.027-3.133C145.629,74.642,146.266,74.394,146.9,74.137Z" style="fill:#f2f2f2"/><path d="M146.9,74.137c-2.532-5.288-4.5-9.687-8.57-10.927-4.321-1.307-10,.457-17.772,2.57q-2.2,6.16-4.605,12.221c6.429.12,20.222-.035,29.027-3.133C145.629,74.642,146.266,74.394,146.9,74.137Z" style="fill:url(#radial-gradient)"/><path d="M180.022,56.122a6.407,6.407,0,0,0-3.859-7.541,9.989,9.989,0,0,0-6.92-9.487A8.548,8.548,0,0,0,160.9,41a7.108,7.108,0,0,0-8.841,5.188,7.88,7.88,0,0,0,.143,4.533,7.547,7.547,0,0,0,4.944,4.858q6.815,2.064,13.627,4.123a17.093,17.093,0,0,1,8.255-1.512A6.03,6.03,0,0,0,180.022,56.122Z" style="fill:#fff"/><path d="M145.34,58.531a3.062,3.062,0,0,0,1.474-1.8.6.6,0,0,0,.016-.071c.024-.064.041-.121.061-.187a5.436,5.436,0,0,0-3.6-6.753,5.266,5.266,0,0,0-5.139,1.207q-1.407-.427-2.815-.852a2.942,2.942,0,0,0-2.288.24,3.08,3.08,0,0,0-1.471,1.8,3.007,3.007,0,0,0,1.98,3.777q1.581.48,3.162.958l6.323,1.915A2.981,2.981,0,0,0,145.34,58.531Z" style="fill:#fff"/><path d="M183.982,59.353c-.456-.172-.932-.338-1.443-.493a16.681,16.681,0,0,0-3.513-.666,17.093,17.093,0,0,0-8.255,1.512c-7.427,3.2-14.273,10.507-23.876,14.431-.629.257-1.266.5-1.92.731-8.805,3.1-22.6,3.253-29.027,3.133-.012.029-.022.058-.034.087q28.326,8.562,56.6,17.1A361.022,361.022,0,0,0,183.982,59.353Z" style="fill:#c6c4c2"/><path d="M67.934,91.046l-3.287-.234a1.767,1.767,0,0,1-1.683-1.938h0a1.942,1.942,0,0,1,2.083-1.67l3.287.235a1.767,1.767,0,0,1,1.684,1.938h0A1.943,1.943,0,0,1,67.934,91.046Z" style="fill:#f5b453"/><path d="M54.529,115.591l-3.384-9.5a.959.959,0,0,1,.62-1.21h0a.97.97,0,0,1,1.249.554l3.384,9.5Z" style="fill:#f5b453"/><path d="M57.4,114.585l-3.385-9.5a.961.961,0,0,1,.621-1.211h0a.969.969,0,0,1,1.248.555l3.384,9.5Z" style="fill:#f5b453"/><path d="M60.765,80.162h0a7.6,7.6,0,0,0-7.449,4.366h0c-1.573,3.279-2.162,5.912-8.548,7.87h0l-8.97,2.2a1.6,1.6,0,0,0-1.229,1.891h0a8.146,8.146,0,0,0,5.2,5.74,14.514,14.514,0,0,0,15.447,5.409c6.595-1.614,11.156-7.121,11.433-13.145h.008l.584-6.876A6.793,6.793,0,0,0,60.765,80.162Z" style="fill:#fdd393"/><path d="M51.079,102.687a9.561,9.561,0,0,0,1.489-.5c4.964-2.121,2.435-9.237-2.811-7.953l-9.392,2.3,0,0A8.7,8.7,0,0,0,51.079,102.687Z" style="fill:#f4b353"/><ellipse cx="61.842" cy="88.218" rx="2.129" ry="1.23" transform="translate(-33.661 138.079) rotate(-82.537)" style="fill:#605d5a"/><path d="M193.35,21.852a6.572,6.572,0,0,1,2.48-3.1.32.32,0,0,0,.023-.537,7.736,7.736,0,0,1-2.491-3.356.4.4,0,0,0-.745,0,7.752,7.752,0,0,1-2.491,3.356.32.32,0,0,0,.023.537,6.58,6.58,0,0,1,2.481,3.1A.394.394,0,0,0,193.35,21.852Z" style="fill:#f1f0ef"/><path d="M188.087,14.84a4.847,4.847,0,0,1,1.828-2.283.236.236,0,0,0,.018-.4A5.708,5.708,0,0,1,188.1,9.687a.3.3,0,0,0-.549,0,5.715,5.715,0,0,1-1.837,2.474.236.236,0,0,0,.018.4,4.847,4.847,0,0,1,1.828,2.283A.291.291,0,0,0,188.087,14.84Z" style="fill:#f1f0ef"/><path d="M14.19,74.192a11.489,11.489,0,0,0,4.22,5.322.591.591,0,0,1,.07.945,13.634,13.634,0,0,0-3.85,6.055.638.638,0,0,1-1.213.041,13.626,13.626,0,0,0-4.252-5.779.591.591,0,0,1,.006-.948,11.484,11.484,0,0,0,3.848-5.6A.623.623,0,0,1,14.19,74.192Z" style="fill:#f1f0ef"/><path d="M20.2,87.482a6.744,6.744,0,0,0,2.476,3.123.347.347,0,0,1,.041.555,8,8,0,0,0-2.259,3.553.374.374,0,0,1-.712.024,8,8,0,0,0-2.5-3.391.348.348,0,0,1,0-.557,6.736,6.736,0,0,0,2.259-3.284A.365.365,0,0,1,20.2,87.482Z" style="fill:#f1f0ef"/><path d="M96.507,149.623h-.023a22.769,22.769,0,0,1-1.786,2.2c-.363.4-.724.8-1.118,1.177l-19.737-1.447a3.494,3.494,0,0,1-2.761-1.792,3.453,3.453,0,0,1-1.8-3q.118-15.763.951-31.556a22.722,22.722,0,1,0,26.275,34.418Z" style="fill:none"/><path d="M139.474,149.3a2.288,2.288,0,0,1-2.5,2.309l-29.5-2.162c-.139.319-.287.633-.436.948l30.994,2.271a2.287,2.287,0,0,0,2.5-2.31,568.8,568.8,0,0,1,4.112-68.549q-6-7.193-11.809-14.377l-.208-.016q5.4,6.664,10.96,13.336A568.6,568.6,0,0,0,139.474,149.3Z" style="fill:#e1dfdd"/><path d="M96.484,149.622h.023c.213-.3.4-.623.6-.936l-.023,0C96.883,149,96.7,149.317,96.484,149.622Z" style="fill:#e1dfdd"/><path d="M130.145,78.413a1.244,1.244,0,0,0,.435,1.1A1.247,1.247,0,0,1,130.145,78.413Z" style="fill:#e1dfdd"/><path d="M98.1,111.383l37.4,2.527q-.077,1.2-.148,2.391l-34.392-2.323a32.43,32.43,0,0,1,4.219,5.365c.337.537.652,1.082.954,1.63l28.854,2.079q-.057,1.194-.11,2.39l-27.51-1.981a32.2,32.2,0,0,1,2.263,7.361l24.344,1.641q-.038,1.193-.07,2.39l-23.93-1.612a32.432,32.432,0,0,1-2.5,16.206l29.5,2.162a2.288,2.288,0,0,0,2.5-2.309,568.6,568.6,0,0,1,4.113-68.55l-12.281-.909a1.225,1.225,0,0,1-.726-.325,1.244,1.244,0,0,1-.435-1.1q.751-6.022,1.633-12.04L94.945,63.644l-10-.74a2.74,2.74,0,0,0-2.857,2.307q-.212,1.419-.415,2.84-2.6,18.1-4.013,36.248A32.17,32.17,0,0,1,98.1,111.383ZM87.42,90.669q.612-5.931,1.348-11.862a2.273,2.273,0,0,1,2.4-1.98l11.855.878a2.022,2.022,0,0,1,1.865,2.3q-.725,5.93-1.323,11.863a2.211,2.211,0,0,1-2.346,1.981q-5.942-.441-11.88-.878A2.075,2.075,0,0,1,87.42,90.669Zm48.542,16.6-50.991-3.447q.1-1.2.2-2.392l50.977,3.448Q136.053,106.077,135.962,107.272ZM134.51,95.728q-13.018-.829-26.033-1.658.118-1.2.243-2.391l26.025,1.658Q134.625,94.533,134.51,95.728Z" style="fill:#fff"/><path d="M97.087,124.425A22.59,22.59,0,0,1,98.96,128.1q.411,1.012.715,2.049l.025,0a22.576,22.576,0,0,0-2.588-5.729c-.4-.626-.833-1.221-1.284-1.8l-.026,0C96.254,123.2,96.685,123.8,97.087,124.425Z" style="fill:#fff"/><path d="M97.08,148.685l.023,0a22.766,22.766,0,0,0,3.181-16.1l-.025,0A22.764,22.764,0,0,1,97.08,148.685Z" style="fill:#fff"/><path d="M91.2,118.236a22.676,22.676,0,0,1,2.207,1.82l.027,0a23.016,23.016,0,0,0-14.9-6.146A23.34,23.34,0,0,1,91.2,118.236Z" style="fill:#fff"/><path d="M130.145,78.413a1.247,1.247,0,0,0,.435,1.1,1.225,1.225,0,0,0,.726.325l12.281.909q-5.562-6.669-10.96-13.336c-.282-.347-.568-.694-.849-1.041Q130.9,72.388,130.145,78.413Z" style="fill:#e1dfdd"/><path d="M89.338,92.966q5.939.44,11.88.878a2.211,2.211,0,0,0,2.346-1.981q.6-5.933,1.323-11.863a2.022,2.022,0,0,0-1.865-2.3l-11.855-.878a2.273,2.273,0,0,0-2.4,1.98q-.737,5.93-1.348,11.862A2.075,2.075,0,0,0,89.338,92.966Z" style="fill:#e1dfdd"/><path d="M135.5,113.91l-37.4-2.527a31.985,31.985,0,0,1,2.856,2.595l34.392,2.323Q135.421,115.106,135.5,113.91Z" style="fill:#e1dfdd"/><path d="M85.172,101.433q-.1,1.2-.2,2.392l50.991,3.447q.091-1.2.187-2.391Z" style="fill:#e1dfdd"/><path d="M134.984,123.052l-28.854-2.079q.675,1.229,1.234,2.488l27.51,1.981Q134.926,124.247,134.984,123.052Z" style="fill:#e1dfdd"/><path d="M95.8,122.628l.026,0a22.729,22.729,0,0,0-2.4-2.572l-.027,0A22.737,22.737,0,0,1,95.8,122.628Z" style="fill:#e1dfdd"/><path d="M99.968,131.246c.108.446.211.892.291,1.341l.025,0a22.379,22.379,0,0,0-.584-2.435l-.025,0C99.782,130.516,99.88,130.879,99.968,131.246Z" style="fill:#e1dfdd"/><path d="M133.971,132.463l-24.344-1.641q.218,1.208.344,2.419l23.93,1.612Q133.934,133.658,133.971,132.463Z" style="fill:#e1dfdd"/><path d="M108.72,91.679q-.124,1.2-.243,2.391,13.015.831,26.033,1.658.115-1.2.235-2.391Z" style="fill:#e1dfdd"/><path d="M52.58,156.593l-7.848,8.2,6.387,6.142,7.892-8.209A32.045,32.045,0,0,1,52.58,156.593Z" style="fill:url(#linear-gradient)"/><path d="M43.645,163.751,19.89,188.209a5.977,5.977,0,1,0,8.616,8.285l23.756-24.458-1.143-1.1L44.732,164.8Z" style="fill:#74adee"/><path d="M107.035,150.4c.149-.315.3-.629.436-.948a32.432,32.432,0,0,0,2.5-16.206q-.124-1.212-.344-2.419a32.2,32.2,0,0,0-2.263-7.361q-.56-1.258-1.234-2.488c-.3-.548-.617-1.093-.954-1.63a32.43,32.43,0,0,0-4.219-5.365A32.092,32.092,0,0,0,77.662,104.3,32.262,32.262,0,0,0,52.58,156.593a32.242,32.242,0,0,0,54.455-6.2Zm-48.366-1.668a22.584,22.584,0,0,1,11.563-33.522V115.2a22.719,22.719,0,0,1,8.294-1.286,23.016,23.016,0,0,1,14.9,6.146,22.729,22.729,0,0,1,2.4,2.572c.451.574.882,1.169,1.284,1.8a22.633,22.633,0,0,1-.009,24.262c-.2.313-.383.632-.6.936a22.725,22.725,0,0,1-37.838-.9Z" style="fill:#a9c9ea"/><path d="M71.082,149.765a3.494,3.494,0,0,0,2.761,1.792L93.58,153c.394-.377.755-.777,1.118-1.177L72.485,150.2A3.388,3.388,0,0,1,71.082,149.765Z" style="fill:#e1dfdd"/><path d="M71.082,149.765a3.388,3.388,0,0,0,1.4.434L94.7,151.827a22.769,22.769,0,0,0,1.786-2.2c.213-.305.4-.624.6-.937a22.764,22.764,0,0,0,3.179-16.1c-.08-.449-.183-.895-.291-1.341l-21.9-1.475q.051-1.535.109-3.069,10.392.7,20.788,1.4a22.59,22.59,0,0,0-1.873-3.678c-.4-.626-.833-1.223-1.285-1.8a24.478,24.478,0,0,0-4.607-4.392L79.4,117.387q.078-1.536.161-3.071l3.7.267a23.119,23.119,0,0,0-4.736-.671,22.719,22.719,0,0,0-8.294,1.286v.007q-.806,15.789-.951,31.556A3.453,3.453,0,0,0,71.082,149.765Z" style="fill:#fff"/><path d="M79.562,114.316q-.082,1.536-.161,3.071l11.794.849a23.006,23.006,0,0,0-7.932-3.653Z" style="fill:#e1dfdd"/><path d="M98.96,128.1q-10.393-.7-20.788-1.4-.059,1.534-.109,3.069l21.905,1.475c-.088-.367-.186-.73-.293-1.094Q99.369,129.117,98.96,128.1Z" style="fill:#e1dfdd"/></svg>